<svg width="110" height="38" fill="none" xmlns="http://www.w3.org/2000/svg"><g clip-path="url(#clip0_562_643)"><g clip-path="url(#clip1_562_643)"><g clip-path="url(#clip2_562_643)"><path d="M36.004 0H0v13.588h36.004V0zM13.253 38.5H0c0-12.456 9.94-22.647 22.088-22.647h13.916v13.589H22.088c-4.859 0-8.835 4.076-8.835 9.058zm47.71 0H47.71V13.588h-9.498V0h22.751v38.5z" fill="#E10600"/><path d="M77.088 0v4.982h-5.522v7.927h5.522v4.982h-5.964c-1.767 0-3.092-.453-4.197-1.359-.883-.906-1.546-2.038-1.546-3.623V4.982c0-1.585.442-2.718 1.546-3.623 1.105-.906 2.43-1.36 4.197-1.36h5.964zm2.209 0h9.498c1.767 0 3.092.453 3.976 1.359.883.905 1.546 2.038 1.546 3.623v7.927c0 1.132-.221 2.038-.663 2.717a5.261 5.261 0 01-1.988 1.812c-.883.453-1.767.68-3.092.68h-4.639c-1.767 0-3.092-.454-4.197-1.36-.883-.905-1.546-2.038-1.546-3.623v-1.812c0-.906.221-1.585.663-2.264.442-.68.883-1.133 1.767-1.586.663-.453 1.546-.453 2.65-.453h5.081V4.982h-9.056V0zm4.86 10.644v2.944h4.196v-2.944h-4.197zM109.558 0v4.982h-7.731v1.812h3.092c1.547 0 2.651.453 3.535 1.132.883.68 1.325 1.812 1.325 3.17v1.813c0 1.585-.442 2.717-1.546 3.623-1.105.906-2.209 1.359-3.976 1.359h-8.394v-4.982h7.952v-1.812h-3.092c-1.546 0-2.65-.453-3.534-1.133-.663-.905-1.105-1.811-1.105-3.17V3.849c0-.452 0-.679.22-.905 0-.227.222-.453.443-.906.22-.226.22-.68.662-.68.221-.226.442-.452.884-.679.22-.226.663-.453 1.104-.453C99.618 0 100.06 0 100.723 0h8.835zM65.381 38.5V20.158h6.185V38.5h-6.185zm8.615 0V25.366c0-3.397 1.989-5.208 5.744-5.208h5.08c3.755 0 5.743 1.811 5.743 5.208v13.136h-6.185V25.365H79.96v13.136h-5.963zm24.519-18.343h5.301c1.767 0 3.313.453 4.197 1.358 1.104.906 1.546 2.265 1.546 3.85v8.153c0 1.586-.442 2.944-1.546 3.85-1.105.906-2.43 1.36-4.197 1.36h-5.301c-1.767 0-3.314-.454-4.197-1.36-1.105-.906-1.546-2.264-1.546-3.85v-8.153c0-1.585.441-2.944 1.546-3.85 1.104-.905 2.43-1.358 4.197-1.358zm.442 5.208v8.153h4.638v-8.153h-4.638z" fill="#E9EEF2"/></g></g></g><defs><clipPath id="clip0_562_643"><path fill="#fff" d="M0 0h110v38H0z"/></clipPath><clipPath id="clip1_562_643"><path fill="#fff" d="M0 0h110v38.5H0z"/></clipPath><clipPath id="clip2_562_643"><path fill="#fff" d="M0 0h110v38.5H0z"/></clipPath></defs></svg>