<svg width="100" height="36" fill="none" xmlns="http://www.w3.org/2000/svg"><g clip-path="url(#clip0_562_1173)"><g clip-path="url(#clip1_562_1173)"><g clip-path="url(#clip2_562_1173)"><mask id="a" style="mask-type:luminance" maskUnits="userSpaceOnUse" x="0" y="0" width="100" height="36"><path d="M100 .5H0v35h100V.5z" fill="#fff"/></mask><g mask="url(#a)"><path d="M32.73.5H0v12.353h32.73V.5zm-20.682 35H0c0-11.323 9.036-20.588 20.08-20.588h12.65v12.353H20.08c-4.417 0-8.032 3.706-8.032 8.235zm43.373 0H43.373V12.853h-8.635V.5h20.683v35z" fill="#E10600"/><path d="M70.08.5v4.53h-5.02v7.205h5.02v4.53h-5.422c-1.606 0-2.81-.412-3.815-1.236-.803-.823-1.406-1.852-1.406-3.294V5.03c0-1.44.402-2.47 1.406-3.294C61.847.912 63.052.5 64.658.5h5.422zm2.008 0h8.635c1.606 0 2.81.412 3.614 1.235.803.824 1.406 1.853 1.406 3.294v7.206c0 1.03-.201 1.853-.603 2.47a4.783 4.783 0 01-1.807 1.648c-.803.412-1.606.618-2.811.618h-4.217c-1.607 0-2.811-.412-3.815-1.236-.804-.823-1.406-1.853-1.406-3.294v-1.647c0-.823.2-1.441.602-2.059.402-.617.804-1.03 1.607-1.44.602-.413 1.405-.413 2.41-.413h4.618V5.03h-8.233V.5zm4.418 9.677v2.676h3.815v-2.676h-3.815zM99.598.5v4.53H92.57v1.646h2.811c1.406 0 2.41.412 3.213 1.03.803.618 1.205 1.647 1.205 2.882v1.647c0 1.442-.402 2.47-1.406 3.294-1.004.824-2.008 1.236-3.614 1.236h-7.63v-4.53h7.228v-1.647h-2.81c-1.406 0-2.41-.411-3.214-1.03-.602-.823-1.004-1.646-1.004-2.882V4c0-.412 0-.618.201-.824 0-.205.2-.411.402-.823.2-.206.2-.618.602-.618.2-.206.402-.411.803-.617a1.516 1.516 0 011.004-.412C90.562.5 90.964.5 91.566.5h8.032zm-40.16 35V18.825h5.622v16.677h-5.623zm7.832 0V23.56c0-3.089 1.807-4.736 5.22-4.736h4.619c3.414 0 5.22 1.647 5.22 4.735v11.942h-5.622V23.56h-4.016V35.5H67.27zm22.289-16.676h4.819c1.606 0 3.012.412 3.815 1.235 1.004.824 1.406 2.06 1.406 3.5v7.412c0 1.442-.402 2.677-1.406 3.5-1.004.824-2.209 1.236-3.815 1.236h-4.82c-1.606 0-3.011-.412-3.815-1.236-1.003-.823-1.405-2.058-1.405-3.5V23.56c0-1.44.402-2.676 1.406-3.5 1.004-.823 2.208-1.235 3.815-1.235zm.401 4.735v7.412h4.217V23.56H89.96z" fill="#172133"/></g></g></g></g><defs><clipPath id="clip0_562_1173"><path fill="#fff" transform="translate(0 .5)" d="M0 0h100v35H0z"/></clipPath><clipPath id="clip1_562_1173"><path fill="#fff" transform="translate(0 .5)" d="M0 0h100v35H0z"/></clipPath><clipPath id="clip2_562_1173"><path fill="#fff" transform="translate(0 .5)" d="M0 0h100v35H0z"/></clipPath></defs></svg>